<?xml version="1.0" encoding="UTF-8" standalone="no"?>
<!DOCTYPE svg PUBLIC "-//W3C//DTD SVG 1.1//EN" "http://www.w3.org/Graphics/SVG/1.1/DTD/svg11.dtd">
<svg width="100%" height="100%" viewBox="0 0 200 50" version="1.1" xmlns="http://www.w3.org/2000/svg" xmlns:xlink="http://www.w3.org/1999/xlink" xml:space="preserve" xmlns:serif="http://www.serif.com/" style="fill-rule:evenodd;clip-rule:evenodd;stroke-linejoin:round;stroke-miterlimit:2;">
    <g id="orange" transform="matrix(1.02259,0,0,1.02259,190.806,19.5297)">
        <path d="M0,11.043C-1.483,16.579 -4.821,20.846 -10.024,23.85C-15.222,26.851 -20.592,27.611 -26.128,26.128C-31.664,24.645 -35.934,21.301 -38.935,16.103C-41.939,10.9 -42.696,5.536 -41.213,0C-39.729,-5.536 -36.386,-9.806 -31.188,-12.807C-25.984,-15.811 -20.621,-16.568 -15.085,-15.085C-9.549,-13.601 -5.282,-10.264 -2.278,-5.06C0.723,0.137 1.484,5.507 0,11.043" style="fill:rgb(245,130,32);fill-rule:nonzero;"/>
    </g>
    <g id="gelb" transform="matrix(1.02259,0,0,1.02259,138.845,19.1384)">
        <path d="M0,7.361C-0.989,11.052 -3.214,13.896 -6.683,15.899C-10.148,17.9 -13.728,18.407 -17.419,17.418C-21.109,16.429 -23.956,14.2 -25.956,10.735C-27.959,7.266 -28.464,3.69 -27.475,-0.001C-26.486,-3.692 -24.257,-6.538 -20.792,-8.539C-17.323,-10.542 -13.747,-11.046 -10.057,-10.058C-6.366,-9.069 -3.521,-6.844 -1.519,-3.375C0.482,0.09 0.989,3.67 0,7.361" style="fill:rgb(214,216,25);fill-rule:nonzero;"/>
    </g>
    <g id="türkis" transform="matrix(1.02259,0,0,1.02259,102.273,20.7164)">
        <path d="M0,7.361C-0.989,11.052 -3.214,13.896 -6.683,15.899C-10.148,17.9 -13.728,18.407 -17.419,17.418C-21.109,16.429 -23.956,14.2 -25.956,10.735C-27.959,7.266 -28.464,3.69 -27.475,-0.001C-26.486,-3.692 -24.257,-6.538 -20.792,-8.539C-17.323,-10.542 -13.747,-11.046 -10.057,-10.058C-6.366,-9.069 -3.521,-6.844 -1.519,-3.375C0.482,0.09 0.989,3.67 0,7.361" style="fill:rgb(0,186,190);fill-rule:nonzero;"/>
    </g>
    <g id="gruen" transform="matrix(1.02259,0,0,1.02259,63.0982,18.3591)">
        <path d="M0,5.153C-0.692,7.736 -2.25,9.728 -4.678,11.13C-7.103,12.53 -9.609,12.885 -12.193,12.193C-14.776,11.5 -16.769,9.94 -18.169,7.515C-19.572,5.086 -19.925,2.583 -19.233,0C-18.54,-2.584 -16.98,-4.577 -14.554,-5.977C-12.126,-7.379 -9.623,-7.732 -7.04,-7.04C-4.456,-6.348 -2.465,-4.79 -1.063,-2.362C0.337,0.064 0.692,2.57 0,5.153" style="fill:rgb(114,191,68);fill-rule:nonzero;"/>
    </g>
    <g id="schwarz" transform="matrix(1.02259,0,0,1.02259,35.5972,26.6651)">
        <path d="M0,-7.361C0.989,-3.67 0.484,-0.095 -1.519,3.375C-3.519,6.84 -6.366,9.069 -10.057,10.058C-13.747,11.046 -17.327,10.539 -20.792,8.539C-24.261,6.536 -26.486,3.692 -27.475,0.001C-28.464,-3.69 -27.957,-7.27 -25.956,-10.735C-23.954,-14.204 -21.109,-16.429 -17.419,-17.418C-13.728,-18.407 -10.152,-17.902 -6.683,-15.899C-3.218,-13.899 -0.989,-11.052 0,-7.361" style="fill-rule:nonzero;"/>
    </g>
</svg>
