<?xml version="1.0" encoding="UTF-8" standalone="no"?>
<!DOCTYPE svg PUBLIC "-//W3C//DTD SVG 1.1//EN" "http://www.w3.org/Graphics/SVG/1.1/DTD/svg11.dtd">
<svg width="100%" height="100%" viewBox="0 0 700 700" version="1.1" xmlns="http://www.w3.org/2000/svg" xmlns:xlink="http://www.w3.org/1999/xlink" xml:space="preserve" xmlns:serif="http://www.serif.com/" style="fill-rule:evenodd;clip-rule:evenodd;stroke-linejoin:round;stroke-miterlimit:2;">
    <g transform="matrix(1,0,0,1,-1794.49,-91.1713)">
        <g transform="matrix(2,0,0,2,0,0)">
            <g transform="matrix(60.0186,0,0,60.0186,905.663,212.657)">
                <path d="M0.09,0L0.09,-0.771L0.235,-0.771L0.235,-0.286L0.244,-0.286L0.435,-0.536L0.555,-0.536L0.379,-0.307L0.61,0L0.435,0L0.244,-0.268L0.235,-0.268L0.235,0L0.09,0Z" style="fill-rule:nonzero;"/>
            </g>
            <g transform="matrix(60.0186,0,0,60.0186,940.778,212.657)">
                <path d="M0.422,0L0.422,-0.101C0.375,-0.026 0.314,0.012 0.239,0.012C0.191,0.012 0.154,-0.003 0.126,-0.033C0.098,-0.063 0.084,-0.105 0.084,-0.157L0.084,-0.536L0.229,-0.536L0.229,-0.193C0.229,-0.132 0.249,-0.102 0.29,-0.102C0.336,-0.102 0.38,-0.134 0.422,-0.199L0.422,-0.536L0.566,-0.536L0.566,0L0.422,0Z" style="fill-rule:nonzero;"/>
            </g>
            <g transform="matrix(60.0186,0,0,60.0186,977.328,212.657)">
                <rect x="0.09" y="-0.771" width="0.145" height="0.771" style="fill-rule:nonzero;"/>
            </g>
            <g transform="matrix(60.0186,0,0,60.0186,993.98,212.657)">
                <path d="M0.367,-0.003C0.332,0.007 0.305,0.012 0.285,0.012C0.16,0.012 0.097,-0.046 0.097,-0.164L0.097,-0.446L0.037,-0.446L0.037,-0.536L0.097,-0.536L0.097,-0.626L0.242,-0.643L0.242,-0.536L0.356,-0.536L0.356,-0.446L0.242,-0.446L0.242,-0.183C0.242,-0.117 0.269,-0.084 0.322,-0.084C0.335,-0.084 0.349,-0.086 0.367,-0.091L0.367,-0.003Z" style="fill-rule:nonzero;"/>
            </g>
            <g transform="matrix(60.0186,0,0,60.0186,1015.44,212.657)">
                <path d="M0.422,0L0.422,-0.101C0.375,-0.026 0.314,0.012 0.239,0.012C0.191,0.012 0.154,-0.003 0.126,-0.033C0.098,-0.063 0.084,-0.105 0.084,-0.157L0.084,-0.536L0.229,-0.536L0.229,-0.193C0.229,-0.132 0.249,-0.102 0.29,-0.102C0.336,-0.102 0.38,-0.134 0.422,-0.199L0.422,-0.536L0.566,-0.536L0.566,0L0.422,0Z" style="fill-rule:nonzero;"/>
            </g>
            <g transform="matrix(60.0186,0,0,60.0186,1051.99,212.657)">
                <path d="M0.09,0L0.09,-0.536L0.235,-0.536L0.235,-0.435C0.272,-0.511 0.329,-0.548 0.406,-0.548C0.415,-0.548 0.424,-0.547 0.433,-0.545L0.433,-0.417C0.412,-0.424 0.393,-0.428 0.375,-0.428C0.318,-0.428 0.271,-0.399 0.235,-0.34L0.235,0L0.09,0Z" style="fill-rule:nonzero;"/>
            </g>
            <g transform="matrix(58.2553,0,0,58.2553,1055.96,253.436)">
                <path d="M0.486,-0.012C0.426,0.004 0.37,0.012 0.319,0.012C0.234,0.012 0.166,-0.013 0.116,-0.063C0.067,-0.114 0.042,-0.182 0.042,-0.269C0.042,-0.356 0.068,-0.425 0.119,-0.474C0.17,-0.524 0.24,-0.548 0.331,-0.548C0.374,-0.548 0.424,-0.541 0.481,-0.527L0.481,-0.423C0.422,-0.442 0.375,-0.452 0.339,-0.452C0.296,-0.452 0.261,-0.435 0.235,-0.402C0.208,-0.369 0.195,-0.325 0.195,-0.27C0.195,-0.213 0.21,-0.168 0.238,-0.134C0.267,-0.1 0.305,-0.083 0.352,-0.083C0.395,-0.083 0.44,-0.093 0.486,-0.112L0.486,-0.012Z" style="fill-rule:nonzero;"/>
            </g>
            <g transform="matrix(58.2553,0,0,58.2553,1083.59,253.436)">
                <path d="M0.353,-0.058C0.305,-0.011 0.253,0.012 0.198,0.012C0.151,0.012 0.113,-0.002 0.084,-0.031C0.055,-0.059 0.04,-0.097 0.04,-0.142C0.04,-0.201 0.064,-0.247 0.111,-0.279C0.158,-0.311 0.226,-0.327 0.314,-0.327L0.353,-0.327L0.353,-0.376C0.353,-0.432 0.321,-0.459 0.258,-0.459C0.201,-0.459 0.145,-0.444 0.087,-0.412L0.087,-0.511C0.152,-0.536 0.217,-0.548 0.281,-0.548C0.422,-0.548 0.492,-0.493 0.492,-0.381L0.492,-0.144C0.492,-0.102 0.505,-0.081 0.532,-0.081C0.537,-0.081 0.543,-0.081 0.551,-0.083L0.555,-0.001C0.524,0.008 0.497,0.012 0.474,0.012C0.414,0.012 0.376,-0.011 0.359,-0.058L0.353,-0.058ZM0.353,-0.135L0.353,-0.244L0.319,-0.244C0.225,-0.244 0.179,-0.215 0.179,-0.156C0.179,-0.136 0.185,-0.12 0.199,-0.106C0.212,-0.093 0.229,-0.086 0.249,-0.086C0.283,-0.086 0.318,-0.102 0.353,-0.135Z" style="fill-rule:nonzero;"/>
            </g>
            <g transform="matrix(58.2553,0,0,58.2553,1114.47,253.436)">
                <path d="M0.076,-0.017L0.076,-0.123C0.148,-0.093 0.209,-0.078 0.26,-0.078C0.319,-0.078 0.349,-0.098 0.349,-0.139C0.349,-0.165 0.324,-0.188 0.275,-0.207L0.227,-0.227C0.174,-0.248 0.136,-0.271 0.113,-0.296C0.09,-0.321 0.079,-0.351 0.079,-0.388C0.079,-0.438 0.098,-0.478 0.137,-0.506C0.175,-0.534 0.23,-0.548 0.299,-0.548C0.343,-0.548 0.395,-0.542 0.455,-0.529L0.455,-0.428C0.397,-0.448 0.349,-0.458 0.311,-0.458C0.251,-0.458 0.221,-0.439 0.221,-0.402C0.221,-0.378 0.243,-0.357 0.288,-0.34L0.33,-0.324C0.392,-0.3 0.436,-0.276 0.461,-0.252C0.485,-0.228 0.498,-0.196 0.498,-0.158C0.498,-0.107 0.477,-0.066 0.435,-0.035C0.393,-0.003 0.339,0.012 0.271,0.012C0.207,0.012 0.142,0.002 0.076,-0.017Z" style="fill-rule:nonzero;"/>
            </g>
            <g transform="matrix(58.2553,0,0,58.2553,1144.03,253.436)">
                <path d="M0.09,0L0.09,-0.536L0.235,-0.536L0.235,0L0.09,0ZM0.09,-0.626L0.09,-0.747L0.235,-0.747L0.235,-0.626L0.09,-0.626Z" style="fill-rule:nonzero;"/>
            </g>
            <g transform="matrix(58.2553,0,0,58.2553,1159.61,253.436)">
                <path d="M0.09,0L0.09,-0.536L0.235,-0.536L0.235,-0.435C0.282,-0.511 0.343,-0.548 0.417,-0.548C0.465,-0.548 0.503,-0.533 0.531,-0.503C0.558,-0.473 0.572,-0.431 0.572,-0.379L0.572,0L0.428,0L0.428,-0.343C0.428,-0.404 0.408,-0.435 0.367,-0.435C0.321,-0.435 0.277,-0.402 0.235,-0.337L0.235,0L0.09,0Z" style="fill-rule:nonzero;"/>
            </g>
            <g transform="matrix(58.2553,0,0,58.2553,1194.49,253.436)">
                <path d="M0.315,0.012C0.232,0.012 0.165,-0.013 0.116,-0.064C0.067,-0.114 0.042,-0.182 0.042,-0.268C0.042,-0.355 0.067,-0.423 0.116,-0.473C0.166,-0.523 0.234,-0.548 0.319,-0.548C0.404,-0.548 0.472,-0.523 0.522,-0.473C0.571,-0.423 0.596,-0.355 0.596,-0.269C0.596,-0.181 0.571,-0.112 0.521,-0.063C0.472,-0.013 0.403,0.012 0.315,0.012ZM0.318,-0.078C0.401,-0.078 0.442,-0.142 0.442,-0.269C0.442,-0.327 0.431,-0.373 0.409,-0.407C0.387,-0.441 0.357,-0.458 0.319,-0.458C0.281,-0.458 0.251,-0.441 0.229,-0.407C0.207,-0.373 0.196,-0.327 0.196,-0.268C0.196,-0.21 0.207,-0.164 0.229,-0.129C0.25,-0.095 0.28,-0.078 0.318,-0.078Z" style="fill-rule:nonzero;"/>
            </g>
            <g transform="matrix(30.0093,0,0,30.0093,1059.98,283.535)">
                <path d="M0.096,0L0.096,-0.53L0.192,-0.53L0.192,-0.431C0.243,-0.505 0.305,-0.542 0.379,-0.542C0.425,-0.542 0.461,-0.527 0.489,-0.498C0.516,-0.469 0.53,-0.43 0.53,-0.381L0.53,0L0.434,0L0.434,-0.35C0.434,-0.389 0.428,-0.417 0.416,-0.434C0.405,-0.451 0.386,-0.459 0.359,-0.459C0.3,-0.459 0.244,-0.42 0.192,-0.343L0.192,0L0.096,0Z" style="fill-rule:nonzero;"/>
            </g>
            <g transform="matrix(30.0093,0,0,30.0093,1075.99,283.535)">
                <path d="M0.485,-0.017C0.42,0.002 0.365,0.012 0.319,0.012C0.241,0.012 0.177,-0.014 0.128,-0.066C0.079,-0.118 0.054,-0.185 0.054,-0.268C0.054,-0.348 0.076,-0.414 0.119,-0.465C0.163,-0.517 0.218,-0.542 0.286,-0.542C0.35,-0.542 0.4,-0.52 0.435,-0.474C0.47,-0.429 0.487,-0.364 0.487,-0.28L0.487,-0.25L0.152,-0.25C0.166,-0.124 0.228,-0.061 0.337,-0.061C0.377,-0.061 0.427,-0.072 0.485,-0.093L0.485,-0.017ZM0.157,-0.322L0.391,-0.322C0.391,-0.421 0.354,-0.47 0.28,-0.47C0.206,-0.47 0.165,-0.421 0.157,-0.322Z" style="fill-rule:nonzero;"/>
            </g>
            <g transform="matrix(30.0093,0,0,30.0093,1090.1,283.535)">
                <path d="M0.428,0L0.428,-0.1C0.377,-0.025 0.315,0.012 0.242,0.012C0.195,0.012 0.159,-0.002 0.131,-0.031C0.104,-0.061 0.09,-0.1 0.09,-0.149L0.09,-0.53L0.187,-0.53L0.187,-0.181C0.187,-0.141 0.192,-0.113 0.204,-0.096C0.215,-0.079 0.235,-0.071 0.262,-0.071C0.32,-0.071 0.376,-0.109 0.428,-0.187L0.428,-0.53L0.524,-0.53L0.524,0L0.428,0Z" style="fill-rule:nonzero;"/>
            </g>
            <g transform="matrix(30.0093,0,0,30.0093,1106.12,283.535)">
                <rect x="0.072" y="-0.325" width="0.434" height="0.072" style="fill-rule:nonzero;"/>
            </g>
            <g transform="matrix(30.0093,0,0,30.0093,1120.88,283.535)">
                <path d="M0.428,0L0.428,-0.1C0.377,-0.025 0.315,0.012 0.242,0.012C0.195,0.012 0.159,-0.002 0.131,-0.031C0.104,-0.061 0.09,-0.1 0.09,-0.149L0.09,-0.53L0.187,-0.53L0.187,-0.181C0.187,-0.141 0.192,-0.113 0.204,-0.096C0.215,-0.079 0.235,-0.071 0.262,-0.071C0.32,-0.071 0.376,-0.109 0.428,-0.187L0.428,-0.53L0.524,-0.53L0.524,0L0.428,0Z" style="fill-rule:nonzero;"/>
            </g>
            <g transform="matrix(30.0093,0,0,30.0093,1136.89,283.535)">
                <rect x="0.096" y="-0.771" width="0.096" height="0.771" style="fill-rule:nonzero;"/>
            </g>
            <g transform="matrix(30.0093,0,0,30.0093,1142.96,283.535)">
                <path d="M0.096,0L0.096,-0.53L0.192,-0.53L0.192,-0.431C0.239,-0.505 0.299,-0.542 0.373,-0.542C0.444,-0.542 0.492,-0.505 0.518,-0.431C0.564,-0.505 0.623,-0.542 0.696,-0.542C0.743,-0.542 0.779,-0.529 0.805,-0.501C0.83,-0.474 0.843,-0.435 0.843,-0.386L0.843,0L0.747,0L0.747,-0.371C0.747,-0.431 0.723,-0.461 0.675,-0.461C0.625,-0.461 0.573,-0.426 0.518,-0.355L0.518,0L0.421,0L0.421,-0.371C0.421,-0.431 0.397,-0.462 0.348,-0.462C0.3,-0.462 0.248,-0.426 0.192,-0.355L0.192,0L0.096,0Z" style="fill-rule:nonzero;"/>
            </g>
        </g>
        <g transform="matrix(2,0,0,2,2018.07,510.356)">
            <path d="M0,6.072C-0.816,9.116 -2.651,11.462 -5.512,13.113C-8.369,14.763 -11.322,15.181 -14.365,14.366C-17.409,13.55 -19.757,11.712 -21.407,8.854C-23.059,5.993 -23.475,3.044 -22.659,0C-21.844,-3.043 -20.005,-5.391 -17.148,-7.041C-14.287,-8.693 -11.338,-9.109 -8.294,-8.293C-5.25,-7.478 -2.904,-5.643 -1.252,-2.782C0.397,0.076 0.816,3.028 0,6.072" style="fill:rgb(245,130,32);fill-rule:nonzero;"/>
        </g>
        <g transform="matrix(2,0,0,2,2077.63,473.628)">
            <path d="M0,4.048C-0.544,6.077 -1.767,7.641 -3.674,8.742C-5.579,9.842 -7.548,10.121 -9.577,9.577C-11.606,9.033 -13.171,7.808 -14.271,5.903C-15.372,3.996 -15.65,2.029 -15.106,0C-14.562,-2.029 -13.337,-3.594 -11.432,-4.694C-9.524,-5.795 -7.558,-6.073 -5.529,-5.529C-3.5,-4.985 -1.936,-3.762 -0.835,-1.855C0.265,0.051 0.544,2.019 0,4.048" style="fill:rgb(214,216,25);fill-rule:nonzero;"/>
        </g>
        <g transform="matrix(2,0,0,2,1943.39,551.133)">
            <path d="M0,4.048C-0.544,6.077 -1.767,7.641 -3.674,8.742C-5.579,9.842 -7.548,10.121 -9.577,9.577C-11.606,9.033 -13.171,7.808 -14.271,5.903C-15.372,3.996 -15.65,2.029 -15.106,0C-14.562,-2.029 -13.337,-3.594 -11.432,-4.694C-9.524,-5.795 -7.558,-6.073 -5.529,-5.529C-3.5,-4.985 -1.936,-3.762 -0.835,-1.855C0.265,0.051 0.544,2.019 0,4.048" style="fill:rgb(114,191,68);fill-rule:nonzero;"/>
        </g>
        <g transform="matrix(2,0,0,2,1871.74,591.1)">
            <path d="M0,2.833C-0.381,4.253 -1.237,5.348 -2.572,6.119C-3.906,6.889 -5.283,7.084 -6.704,6.703C-8.124,6.323 -9.22,5.465 -9.99,4.131C-10.761,2.796 -10.955,1.42 -10.574,0C-10.194,-1.421 -9.336,-2.516 -8.002,-3.286C-6.667,-4.057 -5.291,-4.251 -3.87,-3.871C-2.45,-3.49 -1.355,-2.634 -0.584,-1.299C0.185,0.035 0.381,1.413 0,2.833" style="fill:rgb(0,186,190);fill-rule:nonzero;"/>
        </g>
        <g transform="matrix(2,0,0,2,2067.25,577.214)">
            <path d="M0,-4.048C0.544,-2.019 0.266,-0.053 -0.835,1.855C-1.935,3.76 -3.5,4.985 -5.529,5.529C-7.558,6.073 -9.527,5.794 -11.432,4.694C-13.339,3.593 -14.562,2.029 -15.106,0C-15.65,-2.029 -15.371,-3.998 -14.271,-5.903C-13.17,-7.81 -11.606,-9.033 -9.577,-9.577C-7.548,-10.121 -5.582,-9.843 -3.674,-8.742C-1.769,-7.642 -0.544,-6.077 0,-4.048" style="fill-rule:nonzero;"/>
        </g>
        <g transform="matrix(2,0,0,2,2036.05,646.359)">
            <path d="M0,-6.072C0.816,-3.028 0.399,-0.079 -1.252,2.782C-2.902,5.639 -5.25,7.478 -8.294,8.293C-11.338,9.109 -14.29,8.691 -17.148,7.041C-20.009,5.389 -21.844,3.043 -22.659,-0.001C-23.475,-3.044 -23.057,-5.997 -21.407,-8.854C-19.755,-11.715 -17.409,-13.55 -14.365,-14.366C-11.322,-15.181 -8.372,-14.765 -5.511,-13.113C-2.654,-11.464 -0.816,-9.116 0,-6.072" style="fill:rgb(214,216,25);fill-rule:nonzero;"/>
        </g>
        <g transform="matrix(2,0,0,2,1985.21,710.24)">
            <path d="M0,-2.833C0.381,-1.413 0.186,-0.036 -0.584,1.299C-1.354,2.632 -2.45,3.49 -3.87,3.871C-5.291,4.251 -6.669,4.056 -8.002,3.286C-9.337,2.516 -10.194,1.421 -10.574,0C-10.955,-1.42 -10.76,-2.798 -9.99,-4.131C-9.219,-5.467 -8.124,-6.323 -6.704,-6.703C-5.283,-7.084 -3.907,-6.89 -2.572,-6.119C-1.238,-5.349 -0.381,-4.253 0,-2.833" style="fill:rgb(114,191,68);fill-rule:nonzero;"/>
        </g>
        <g transform="matrix(2,0,0,2,2139.85,682.366)">
            <path d="M0,-11.059C1.485,-9.574 2.228,-7.732 2.228,-5.53C2.228,-3.33 1.485,-1.486 0,-0.001C-1.485,1.485 -3.329,2.228 -5.529,2.228C-7.732,2.228 -9.573,1.485 -11.058,-0.001C-12.544,-1.486 -13.287,-3.33 -13.287,-5.53C-13.287,-7.732 -12.544,-9.574 -11.058,-11.059C-9.573,-12.545 -7.732,-13.287 -5.529,-13.287C-3.329,-13.287 -1.485,-12.545 0,-11.059" style="fill-rule:nonzero;"/>
        </g>
        <g transform="matrix(2,0,0,2,2139.85,759.87)">
            <path d="M0,-11.059C1.485,-9.574 2.228,-7.732 2.228,-5.53C2.228,-3.33 1.485,-1.486 0,-0.001C-1.485,1.485 -3.329,2.228 -5.529,2.228C-7.732,2.228 -9.573,1.485 -11.058,-0.001C-12.544,-1.486 -13.287,-3.33 -13.287,-5.53C-13.287,-7.732 -12.544,-9.574 -11.058,-11.059C-9.573,-12.545 -7.732,-13.287 -5.529,-13.287C-3.329,-13.287 -1.485,-12.545 0,-11.059" style="fill:rgb(114,191,68);fill-rule:nonzero;"/>
        </g>
        <g transform="matrix(2,0,0,2,2251.26,662.944)">
            <path d="M0,-22.659C3.044,-21.843 5.39,-20.008 7.041,-17.147C8.691,-14.29 9.109,-11.337 8.294,-8.294C7.478,-5.25 5.64,-2.902 2.782,-1.252C-0.079,0.4 -3.028,0.816 -6.072,0C-9.115,-0.815 -11.463,-2.654 -13.113,-5.511C-14.765,-8.372 -15.181,-11.321 -14.365,-14.365C-13.55,-17.409 -11.715,-19.755 -8.854,-21.407C-5.996,-23.056 -3.044,-23.475 0,-22.659" style="fill:rgb(245,130,32);fill-rule:nonzero;"/>
        </g>
        <g transform="matrix(2,0,0,2,2287.98,722.513)">
            <path d="M0,-15.106C2.029,-14.562 3.593,-13.339 4.694,-11.432C5.794,-9.527 6.073,-7.558 5.529,-5.529C4.985,-3.5 3.76,-1.935 1.855,-0.835C-0.052,0.266 -2.019,0.544 -4.048,0C-6.077,-0.544 -7.642,-1.769 -8.742,-3.674C-9.843,-5.582 -10.121,-7.548 -9.577,-9.577C-9.033,-11.606 -7.81,-13.17 -5.903,-14.271C-3.997,-15.371 -2.029,-15.65 0,-15.106" style="fill:rgb(0,186,190);fill-rule:nonzero;"/>
        </g>
        <g transform="matrix(2,0,0,2,2394.58,604.507)">
            <path d="M0,-10.574C1.42,-10.955 2.797,-10.76 4.132,-9.99C5.465,-9.22 6.323,-8.124 6.704,-6.704C7.084,-5.283 6.889,-3.905 6.119,-2.572C5.349,-1.237 4.254,-0.38 2.833,0C1.413,0.381 0.035,0.186 -1.298,-0.584C-2.634,-1.355 -3.49,-2.45 -3.87,-3.87C-4.251,-5.291 -4.057,-6.667 -3.286,-8.002C-2.516,-9.336 -1.42,-10.193 0,-10.574" style="fill-rule:nonzero;"/>
        </g>
        <g transform="matrix(2,0,0,2,2252.59,364.092)">
            <path d="M0,-2.833C0.381,-4.253 1.237,-5.348 2.572,-6.119C3.906,-6.889 5.283,-7.084 6.704,-6.703C8.124,-6.323 9.22,-5.465 9.99,-4.131C10.761,-2.796 10.955,-1.42 10.574,0C10.194,1.421 9.336,2.516 8.002,3.286C6.667,4.057 5.291,4.251 3.87,3.871C2.45,3.49 1.355,2.634 0.584,1.299C-0.186,-0.035 -0.381,-1.413 0,-2.833" style="fill:rgb(114,191,68);fill-rule:nonzero;"/>
        </g>
        <g transform="matrix(2,0,0,2,2315.18,326.556)">
            <path d="M0,-4.048C0.544,-6.077 1.767,-7.641 3.674,-8.742C5.579,-9.842 7.548,-10.121 9.577,-9.577C11.606,-9.033 13.171,-7.808 14.271,-5.903C15.372,-3.996 15.65,-2.029 15.106,0C14.562,2.029 13.337,3.594 11.432,4.694C9.524,5.795 7.558,6.073 5.529,5.529C3.5,4.985 1.936,3.762 0.835,1.855C-0.265,-0.051 -0.544,-2.019 0,-4.048" style="fill:rgb(214,216,25);fill-rule:nonzero;"/>
        </g>
        <g transform="matrix(2,0,0,2,2382.3,287.804)">
            <path d="M0,-4.048C0.544,-6.077 1.767,-7.641 3.674,-8.742C5.579,-9.842 7.548,-10.121 9.577,-9.577C11.606,-9.033 13.171,-7.808 14.271,-5.903C15.372,-3.996 15.65,-2.029 15.106,0C14.562,2.029 13.337,3.594 11.432,4.694C9.524,5.795 7.558,6.073 5.529,5.529C3.5,4.985 1.936,3.762 0.835,1.855C-0.265,-0.051 -0.544,-2.019 0,-4.048" style="fill-rule:nonzero;"/>
        </g>
        <g transform="matrix(2,0,0,2,2191.33,300.474)">
            <path d="M0,4.048C-0.544,2.019 -0.266,0.053 0.835,-1.855C1.935,-3.76 3.5,-4.985 5.529,-5.529C7.558,-6.073 9.527,-5.794 11.432,-4.694C13.339,-3.593 14.562,-2.029 15.106,0C15.65,2.029 15.371,3.998 14.271,5.903C13.17,7.81 11.606,9.033 9.577,9.577C7.548,10.121 5.582,9.843 3.674,8.742C1.769,7.642 0.544,6.077 0,4.048" style="fill-rule:nonzero;"/>
        </g>
        <g transform="matrix(2,0,0,2,2230.08,233.353)">
            <path d="M0,4.048C-0.544,2.019 -0.266,0.053 0.835,-1.854C1.935,-3.76 3.5,-4.985 5.529,-5.529C7.558,-6.073 9.527,-5.794 11.432,-4.694C13.339,-3.593 14.562,-2.029 15.106,0C15.65,2.03 15.371,3.998 14.271,5.903C13.17,7.81 11.606,9.034 9.577,9.577C7.548,10.121 5.582,9.844 3.674,8.742C1.769,7.642 0.544,6.077 0,4.048" style="fill:rgb(114,191,68);fill-rule:nonzero;"/>
        </g>
        <g transform="matrix(2,0,0,2,2261.28,164.209)">
            <path d="M0,6.072C-0.816,3.028 -0.399,0.079 1.252,-2.782C2.902,-5.639 5.25,-7.478 8.294,-8.293C11.338,-9.109 14.29,-8.691 17.148,-7.041C20.009,-5.389 21.844,-3.043 22.659,0.001C23.475,3.044 23.057,5.997 21.407,8.854C19.755,11.715 17.409,13.55 14.365,14.366C11.322,15.181 8.373,14.765 5.511,13.113C2.654,11.464 0.816,9.116 0,6.072" style="fill:rgb(245,130,32);fill-rule:nonzero;"/>
        </g>
        <g transform="matrix(2,0,0,2,2113.19,267.298)">
            <path d="M0,16.588C-2.228,14.36 -3.342,11.598 -3.342,8.294C-3.342,4.994 -2.228,2.229 0,0C2.228,-2.228 4.994,-3.342 8.294,-3.342C11.597,-3.342 14.359,-2.228 16.588,0C18.816,2.229 19.93,4.994 19.93,8.294C19.93,11.598 18.816,14.36 16.588,16.588C14.359,18.816 11.597,19.93 8.294,19.93C4.994,19.93 2.228,18.816 0,16.588" style="fill:rgb(245,130,32);fill-rule:nonzero;"/>
        </g>
        <g transform="matrix(2,0,0,2,2118.72,195.323)">
            <path d="M0,11.059C-1.485,9.574 -2.228,7.732 -2.228,5.53C-2.228,3.33 -1.485,1.486 0,0.001C1.485,-1.485 3.329,-2.228 5.529,-2.228C7.732,-2.228 9.573,-1.485 11.058,0.001C12.544,1.486 13.287,3.33 13.287,5.53C13.287,7.732 12.544,9.574 11.058,11.059C9.573,12.545 7.732,13.287 5.529,13.287C3.329,13.287 1.485,12.545 0,11.059" style="fill:rgb(214,216,25);fill-rule:nonzero;"/>
        </g>
        <g transform="matrix(2,0,0,2,2122.04,121.137)">
            <path d="M0,7.741C-1.04,6.701 -1.56,5.412 -1.56,3.871C-1.56,2.331 -1.04,1.04 0,0C1.04,-1.04 2.331,-1.56 3.87,-1.56C5.412,-1.56 6.701,-1.04 7.741,0C8.781,1.04 9.301,2.331 9.301,3.871C9.301,5.412 8.781,6.701 7.741,7.741C6.701,8.781 5.412,9.301 3.87,9.301C2.331,9.301 1.04,8.781 0,7.741" style="fill:rgb(0,186,190);fill-rule:nonzero;"/>
        </g>
        <g transform="matrix(2,0,0,2,2048.1,289.417)">
            <path d="M0,15.106C-2.029,14.562 -3.593,13.339 -4.694,11.432C-5.794,9.527 -6.073,7.558 -5.529,5.529C-4.985,3.5 -3.76,1.935 -1.855,0.835C0.052,-0.266 2.019,-0.544 4.048,0C6.077,0.544 7.642,1.769 8.742,3.674C9.843,5.582 10.121,7.548 9.577,9.577C9.033,11.606 7.81,13.17 5.903,14.271C3.997,15.371 2.029,15.65 0,15.106" style="fill:rgb(214,216,25);fill-rule:nonzero;"/>
        </g>
        <g transform="matrix(2,0,0,2,2007.32,214.744)">
            <path d="M0,22.659C-3.044,21.843 -5.39,20.008 -7.041,17.147C-8.691,14.29 -9.109,11.337 -8.294,8.294C-7.478,5.25 -5.64,2.902 -2.782,1.252C0.079,-0.4 3.028,-0.816 6.071,0C9.115,0.815 11.463,2.654 13.113,5.511C14.765,8.372 15.181,11.321 14.365,14.365C13.55,17.409 11.715,19.755 8.854,21.407C5.996,23.056 3.044,23.475 0,22.659" style="fill:rgb(245,130,32);fill-rule:nonzero;"/>
        </g>
        <g transform="matrix(2,0,0,2,1970.59,155.176)">
            <path d="M0,15.106C-2.029,14.562 -3.593,13.339 -4.694,11.432C-5.794,9.527 -6.073,7.558 -5.529,5.529C-4.985,3.5 -3.76,1.935 -1.855,0.835C0.052,-0.266 2.019,-0.544 4.048,0C6.077,0.544 7.642,1.769 8.742,3.674C9.843,5.582 10.121,7.548 9.577,9.577C9.033,11.606 7.81,13.17 5.903,14.271C3.997,15.371 2.029,15.65 0,15.106" style="fill-rule:nonzero;"/>
        </g>
        <g transform="matrix(2,0,0,2,1864,273.182)">
            <path d="M0,10.574C-1.42,10.955 -2.797,10.76 -4.132,9.99C-5.465,9.22 -6.323,8.124 -6.704,6.704C-7.084,5.283 -6.889,3.905 -6.119,2.572C-5.349,1.237 -4.254,0.38 -2.833,0C-1.413,-0.381 -0.035,-0.186 1.298,0.584C2.634,1.355 3.49,2.45 3.87,3.87C4.251,5.291 4.057,6.667 3.286,8.002C2.516,9.336 1.42,10.193 0,10.574" style="fill:rgb(0,186,190);fill-rule:nonzero;"/>
        </g>
    </g>
</svg>
