<?xml version="1.0" encoding="UTF-8" standalone="no"?>
<!DOCTYPE svg PUBLIC "-//W3C//DTD SVG 1.1//EN" "http://www.w3.org/Graphics/SVG/1.1/DTD/svg11.dtd">
<svg width="100%" height="100%" viewBox="0 0 700 700" version="1.1" xmlns="http://www.w3.org/2000/svg" xmlns:xlink="http://www.w3.org/1999/xlink" xml:space="preserve" xmlns:serif="http://www.serif.com/" style="fill-rule:evenodd;clip-rule:evenodd;stroke-linejoin:round;stroke-miterlimit:2;">
    <g transform="matrix(0.578472,0,0,0.578472,-371.169,-228.057)">
        <g transform="matrix(2,0,0,2,0,0)">
            <g transform="matrix(109.162,0,0,109.162,334.8,484.838)">
                <path d="M0.03,-0.7L0.03,-0.762L0.206,-0.762L0.206,-0.32L0.268,-0.32L0.38,-0.46L0.332,-0.466L0.332,-0.528L0.553,-0.528L0.553,-0.466L0.489,-0.454L0.35,-0.288L0.519,-0.073L0.579,-0.062L0.579,0L0.36,0L0.36,-0.062L0.409,-0.068L0.269,-0.244L0.206,-0.244L0.206,-0.075L0.286,-0.062L0.286,0L0.03,0L0.03,-0.062L0.11,-0.075L0.11,-0.686L0.03,-0.7Z" style="fill:white;fill-rule:nonzero;"/>
            </g>
            <g transform="matrix(109.162,0,0,109.162,395.949,484.838)">
                <path d="M0.421,-0.078C0.405,-0.05 0.383,-0.028 0.357,-0.013C0.331,0.003 0.301,0.01 0.267,0.01C0.209,0.01 0.165,-0.008 0.132,-0.045C0.1,-0.082 0.084,-0.139 0.084,-0.217L0.084,-0.453L0.023,-0.466L0.023,-0.528L0.18,-0.528L0.18,-0.216C0.18,-0.16 0.188,-0.121 0.205,-0.1C0.222,-0.078 0.248,-0.068 0.283,-0.068C0.317,-0.068 0.345,-0.075 0.367,-0.089C0.39,-0.102 0.407,-0.122 0.418,-0.147L0.418,-0.453L0.347,-0.466L0.347,-0.528L0.514,-0.528L0.514,-0.075L0.575,-0.062L0.575,0L0.428,0L0.421,-0.078Z" style="fill:white;fill-rule:nonzero;"/>
            </g>
            <g transform="matrix(109.162,0,0,109.162,457.044,484.838)">
                <path d="M0.03,-0.7L0.03,-0.762L0.206,-0.762L0.206,-0.075L0.286,-0.062L0.286,0L0.03,0L0.03,-0.062L0.11,-0.075L0.11,-0.686L0.03,-0.7Z" style="fill:white;fill-rule:nonzero;"/>
            </g>
            <g transform="matrix(109.162,0,0,109.162,486.211,484.838)">
                <path d="M0.211,-0.656L0.211,-0.528L0.312,-0.528L0.312,-0.457L0.211,-0.457L0.211,-0.136C0.211,-0.111 0.217,-0.094 0.227,-0.084C0.237,-0.074 0.251,-0.069 0.268,-0.069C0.276,-0.069 0.286,-0.07 0.296,-0.071C0.307,-0.073 0.316,-0.074 0.323,-0.076L0.336,-0.01C0.327,-0.004 0.313,0.001 0.296,0.005C0.278,0.008 0.261,0.01 0.243,0.01C0.204,0.01 0.173,-0.002 0.15,-0.025C0.127,-0.049 0.115,-0.086 0.115,-0.136L0.115,-0.457L0.032,-0.457L0.032,-0.528L0.115,-0.528L0.115,-0.656L0.211,-0.656Z" style="fill:white;fill-rule:nonzero;"/>
            </g>
            <g transform="matrix(109.162,0,0,109.162,520.974,484.838)">
                <path d="M0.421,-0.078C0.405,-0.05 0.383,-0.028 0.357,-0.013C0.331,0.003 0.301,0.01 0.267,0.01C0.209,0.01 0.165,-0.008 0.132,-0.045C0.1,-0.082 0.084,-0.139 0.084,-0.217L0.084,-0.453L0.023,-0.466L0.023,-0.528L0.18,-0.528L0.18,-0.216C0.18,-0.16 0.188,-0.121 0.205,-0.1C0.222,-0.078 0.248,-0.068 0.283,-0.068C0.317,-0.068 0.345,-0.075 0.367,-0.089C0.39,-0.102 0.407,-0.122 0.418,-0.147L0.418,-0.453L0.347,-0.466L0.347,-0.528L0.514,-0.528L0.514,-0.075L0.575,-0.062L0.575,0L0.428,0L0.421,-0.078Z" style="fill:white;fill-rule:nonzero;"/>
            </g>
            <g transform="matrix(109.162,0,0,109.162,582.069,484.838)">
                <path d="M0.043,-0.466L0.043,-0.528L0.209,-0.528L0.218,-0.452C0.233,-0.479 0.252,-0.5 0.274,-0.515C0.296,-0.53 0.321,-0.538 0.349,-0.538C0.357,-0.538 0.364,-0.538 0.372,-0.536C0.38,-0.535 0.386,-0.534 0.391,-0.533L0.378,-0.443L0.323,-0.446C0.298,-0.446 0.277,-0.44 0.259,-0.428C0.242,-0.417 0.229,-0.4 0.219,-0.378L0.219,-0.075L0.299,-0.062L0.299,0L0.043,0L0.043,-0.062L0.123,-0.075L0.123,-0.453L0.043,-0.466Z" style="fill:white;fill-rule:nonzero;"/>
            </g>
            <g transform="matrix(105.955,0,0,105.955,608.162,559.006)">
                <path d="M0.281,-0.065C0.313,-0.065 0.341,-0.075 0.365,-0.094C0.389,-0.114 0.401,-0.138 0.401,-0.167L0.488,-0.167L0.489,-0.164C0.49,-0.118 0.47,-0.078 0.428,-0.043C0.386,-0.007 0.337,0.01 0.281,0.01C0.204,0.01 0.145,-0.015 0.105,-0.065C0.064,-0.115 0.044,-0.178 0.044,-0.254L0.044,-0.274C0.044,-0.35 0.064,-0.412 0.105,-0.463C0.146,-0.513 0.204,-0.538 0.281,-0.538C0.323,-0.538 0.361,-0.531 0.395,-0.517C0.428,-0.503 0.456,-0.484 0.479,-0.459L0.483,-0.342L0.406,-0.342L0.385,-0.425C0.374,-0.436 0.359,-0.445 0.341,-0.452C0.323,-0.459 0.303,-0.462 0.281,-0.462C0.23,-0.462 0.194,-0.444 0.173,-0.408C0.151,-0.372 0.14,-0.327 0.14,-0.274L0.14,-0.254C0.14,-0.2 0.151,-0.155 0.172,-0.119C0.194,-0.083 0.23,-0.065 0.281,-0.065Z" style="fill:white;fill-rule:nonzero;"/>
            </g>
            <g transform="matrix(105.955,0,0,105.955,659.144,559.006)">
                <path d="M0.388,0C0.385,-0.014 0.383,-0.027 0.381,-0.039C0.38,-0.05 0.379,-0.061 0.378,-0.073C0.359,-0.049 0.336,-0.029 0.308,-0.013C0.281,0.002 0.251,0.01 0.219,0.01C0.164,0.01 0.122,-0.003 0.094,-0.03C0.065,-0.057 0.051,-0.095 0.051,-0.144C0.051,-0.194 0.071,-0.232 0.112,-0.26C0.152,-0.287 0.208,-0.3 0.278,-0.3L0.377,-0.3L0.377,-0.362C0.377,-0.393 0.368,-0.417 0.348,-0.435C0.329,-0.453 0.301,-0.462 0.267,-0.462C0.243,-0.462 0.221,-0.459 0.203,-0.453C0.184,-0.447 0.17,-0.438 0.158,-0.428L0.148,-0.372L0.074,-0.372L0.074,-0.475C0.098,-0.494 0.127,-0.509 0.161,-0.521C0.195,-0.532 0.232,-0.538 0.272,-0.538C0.332,-0.538 0.381,-0.523 0.418,-0.492C0.455,-0.462 0.474,-0.418 0.474,-0.361L0.474,-0.106C0.474,-0.1 0.474,-0.093 0.474,-0.086C0.474,-0.08 0.474,-0.073 0.475,-0.067L0.514,-0.062L0.514,0L0.388,0ZM0.233,-0.07C0.265,-0.07 0.294,-0.078 0.321,-0.093C0.347,-0.109 0.366,-0.127 0.377,-0.148L0.377,-0.235L0.275,-0.235C0.236,-0.235 0.204,-0.226 0.181,-0.208C0.158,-0.19 0.147,-0.168 0.147,-0.142C0.147,-0.118 0.154,-0.101 0.168,-0.089C0.183,-0.076 0.204,-0.07 0.233,-0.07Z" style="fill:white;fill-rule:nonzero;"/>
            </g>
            <g transform="matrix(105.955,0,0,105.955,711.368,559.006)">
                <path d="M0.448,-0.362L0.375,-0.362L0.36,-0.426C0.348,-0.437 0.333,-0.446 0.316,-0.452C0.298,-0.459 0.278,-0.462 0.255,-0.462C0.221,-0.462 0.196,-0.455 0.179,-0.44C0.163,-0.425 0.154,-0.407 0.154,-0.386C0.154,-0.365 0.162,-0.348 0.176,-0.336C0.191,-0.324 0.221,-0.314 0.266,-0.304C0.332,-0.29 0.382,-0.27 0.415,-0.246C0.447,-0.221 0.463,-0.188 0.463,-0.147C0.463,-0.1 0.444,-0.062 0.406,-0.033C0.369,-0.004 0.319,0.01 0.258,0.01C0.218,0.01 0.182,0.006 0.15,-0.004C0.118,-0.013 0.09,-0.026 0.064,-0.044L0.064,-0.165L0.136,-0.165L0.154,-0.094C0.165,-0.084 0.18,-0.076 0.199,-0.072C0.219,-0.067 0.238,-0.065 0.258,-0.065C0.292,-0.065 0.319,-0.072 0.338,-0.086C0.358,-0.1 0.367,-0.118 0.367,-0.14C0.367,-0.161 0.359,-0.179 0.343,-0.192C0.327,-0.206 0.296,-0.218 0.251,-0.228C0.187,-0.242 0.139,-0.261 0.106,-0.285C0.074,-0.309 0.058,-0.342 0.058,-0.383C0.058,-0.426 0.076,-0.462 0.113,-0.493C0.149,-0.523 0.197,-0.538 0.255,-0.538C0.295,-0.538 0.331,-0.533 0.363,-0.522C0.395,-0.512 0.422,-0.498 0.443,-0.479L0.448,-0.362Z" style="fill:white;fill-rule:nonzero;"/>
            </g>
            <g transform="matrix(105.955,0,0,105.955,759.246,559.006)">
                <path d="M0.043,-0.062L0.123,-0.075L0.123,-0.453L0.043,-0.466L0.043,-0.528L0.219,-0.528L0.219,-0.075L0.299,-0.062L0.299,0L0.043,0L0.043,-0.062ZM0.219,-0.664L0.123,-0.664L0.123,-0.762L0.219,-0.762L0.219,-0.664Z" style="fill:white;fill-rule:nonzero;"/>
            </g>
            <g transform="matrix(105.955,0,0,105.955,787.93,559.006)">
                <path d="M0.029,-0.062L0.109,-0.075L0.109,-0.453L0.029,-0.466L0.029,-0.528L0.195,-0.528L0.202,-0.45C0.219,-0.478 0.241,-0.499 0.268,-0.515C0.294,-0.53 0.325,-0.538 0.358,-0.538C0.415,-0.538 0.459,-0.521 0.491,-0.488C0.522,-0.455 0.538,-0.403 0.538,-0.333L0.538,-0.075L0.617,-0.062L0.617,0L0.362,0L0.362,-0.062L0.441,-0.075L0.441,-0.332C0.441,-0.378 0.432,-0.411 0.414,-0.431C0.395,-0.45 0.367,-0.46 0.33,-0.46C0.302,-0.46 0.277,-0.453 0.256,-0.44C0.235,-0.427 0.218,-0.408 0.205,-0.385L0.205,-0.075L0.285,-0.062L0.285,0L0.029,0L0.029,-0.062Z" style="fill:white;fill-rule:nonzero;"/>
            </g>
            <g transform="matrix(105.955,0,0,105.955,849.466,559.006)">
                <path d="M0.044,-0.269C0.044,-0.347 0.065,-0.412 0.107,-0.462C0.15,-0.513 0.207,-0.538 0.28,-0.538C0.353,-0.538 0.41,-0.513 0.453,-0.462C0.495,-0.412 0.517,-0.347 0.517,-0.269L0.517,-0.258C0.517,-0.18 0.495,-0.115 0.453,-0.065C0.411,-0.015 0.353,0.01 0.281,0.01C0.208,0.01 0.15,-0.015 0.107,-0.065C0.065,-0.115 0.044,-0.18 0.044,-0.258L0.044,-0.269ZM0.14,-0.258C0.14,-0.202 0.152,-0.156 0.176,-0.12C0.199,-0.083 0.234,-0.065 0.281,-0.065C0.326,-0.065 0.361,-0.083 0.385,-0.12C0.409,-0.156 0.42,-0.202 0.42,-0.258L0.42,-0.269C0.42,-0.324 0.409,-0.37 0.385,-0.407C0.361,-0.444 0.326,-0.462 0.28,-0.462C0.234,-0.462 0.199,-0.444 0.175,-0.407C0.152,-0.37 0.14,-0.324 0.14,-0.269L0.14,-0.258Z" style="fill:white;fill-rule:nonzero;"/>
            </g>
            <g transform="matrix(54.5812,0,0,54.5812,615.468,613.758)">
                <path d="M0.029,-0.062L0.109,-0.075L0.109,-0.453L0.029,-0.466L0.029,-0.528L0.195,-0.528L0.202,-0.45C0.219,-0.478 0.241,-0.499 0.268,-0.515C0.294,-0.53 0.325,-0.538 0.358,-0.538C0.415,-0.538 0.459,-0.521 0.491,-0.488C0.522,-0.455 0.538,-0.403 0.538,-0.333L0.538,-0.075L0.617,-0.062L0.617,0L0.362,0L0.362,-0.062L0.441,-0.075L0.441,-0.332C0.441,-0.378 0.432,-0.411 0.414,-0.431C0.395,-0.45 0.367,-0.46 0.33,-0.46C0.302,-0.46 0.277,-0.453 0.256,-0.44C0.235,-0.427 0.218,-0.408 0.205,-0.385L0.205,-0.075L0.285,-0.062L0.285,0L0.029,0L0.029,-0.062Z" style="fill:white;fill-rule:nonzero;"/>
            </g>
            <g transform="matrix(54.5812,0,0,54.5812,645.584,613.758)">
                <path d="M0.285,0.01C0.211,0.01 0.153,-0.014 0.109,-0.063C0.066,-0.112 0.044,-0.176 0.044,-0.254L0.044,-0.275C0.044,-0.351 0.066,-0.413 0.111,-0.463C0.156,-0.513 0.209,-0.538 0.27,-0.538C0.341,-0.538 0.395,-0.517 0.431,-0.474C0.468,-0.431 0.486,-0.373 0.486,-0.302L0.486,-0.242L0.144,-0.242L0.142,-0.239C0.143,-0.188 0.156,-0.147 0.181,-0.114C0.205,-0.081 0.24,-0.065 0.285,-0.065C0.317,-0.065 0.346,-0.07 0.37,-0.079C0.395,-0.088 0.416,-0.101 0.434,-0.117L0.472,-0.055C0.453,-0.036 0.428,-0.021 0.397,-0.009C0.366,0.004 0.328,0.01 0.285,0.01ZM0.27,-0.462C0.238,-0.462 0.21,-0.449 0.188,-0.422C0.165,-0.394 0.151,-0.36 0.146,-0.319L0.146,-0.317L0.39,-0.317L0.39,-0.33C0.39,-0.367 0.38,-0.399 0.36,-0.424C0.34,-0.45 0.31,-0.462 0.27,-0.462Z" style="fill:white;fill-rule:nonzero;"/>
            </g>
            <g transform="matrix(54.5812,0,0,54.5812,670.184,613.758)">
                <path d="M0.421,-0.078C0.405,-0.05 0.383,-0.028 0.357,-0.013C0.331,0.003 0.301,0.01 0.267,0.01C0.209,0.01 0.165,-0.008 0.132,-0.045C0.1,-0.082 0.084,-0.139 0.084,-0.217L0.084,-0.453L0.023,-0.466L0.023,-0.528L0.18,-0.528L0.18,-0.216C0.18,-0.16 0.188,-0.121 0.205,-0.1C0.222,-0.078 0.248,-0.068 0.283,-0.068C0.317,-0.068 0.345,-0.075 0.367,-0.089C0.39,-0.102 0.407,-0.122 0.418,-0.147L0.418,-0.453L0.347,-0.466L0.347,-0.528L0.514,-0.528L0.514,-0.075L0.575,-0.062L0.575,0L0.428,0L0.421,-0.078Z" style="fill:white;fill-rule:nonzero;"/>
            </g>
            <g transform="matrix(54.5812,0,0,54.5812,698.594,613.758)">
                <rect x="0.075" y="-0.338" width="0.239" height="0.075" style="fill:white;fill-rule:nonzero;"/>
            </g>
            <g transform="matrix(54.5812,0,0,54.5812,715.092,613.758)">
                <path d="M0.421,-0.078C0.405,-0.05 0.383,-0.028 0.357,-0.013C0.331,0.003 0.301,0.01 0.267,0.01C0.209,0.01 0.165,-0.008 0.132,-0.045C0.1,-0.082 0.084,-0.139 0.084,-0.217L0.084,-0.453L0.023,-0.466L0.023,-0.528L0.18,-0.528L0.18,-0.216C0.18,-0.16 0.188,-0.121 0.205,-0.1C0.222,-0.078 0.248,-0.068 0.283,-0.068C0.317,-0.068 0.345,-0.075 0.367,-0.089C0.39,-0.102 0.407,-0.122 0.418,-0.147L0.418,-0.453L0.347,-0.466L0.347,-0.528L0.514,-0.528L0.514,-0.075L0.575,-0.062L0.575,0L0.428,0L0.421,-0.078Z" style="fill:white;fill-rule:nonzero;"/>
            </g>
            <g transform="matrix(54.5812,0,0,54.5812,743.502,613.758)">
                <path d="M0.03,-0.7L0.03,-0.762L0.206,-0.762L0.206,-0.075L0.286,-0.062L0.286,0L0.03,0L0.03,-0.062L0.11,-0.075L0.11,-0.686L0.03,-0.7Z" style="fill:white;fill-rule:nonzero;"/>
            </g>
            <g transform="matrix(54.5812,0,0,54.5812,755.949,613.758)">
                <path d="M0.024,-0.062L0.104,-0.075L0.104,-0.453L0.024,-0.466L0.024,-0.528L0.19,-0.528L0.197,-0.459C0.214,-0.485 0.236,-0.504 0.262,-0.518C0.289,-0.531 0.32,-0.538 0.355,-0.538C0.39,-0.538 0.42,-0.53 0.446,-0.514C0.471,-0.497 0.49,-0.473 0.502,-0.44C0.519,-0.47 0.541,-0.494 0.568,-0.512C0.596,-0.529 0.628,-0.538 0.664,-0.538C0.718,-0.538 0.761,-0.52 0.792,-0.483C0.823,-0.446 0.839,-0.39 0.839,-0.316L0.839,-0.075L0.918,-0.062L0.918,0L0.663,0L0.663,-0.062L0.742,-0.075L0.742,-0.317C0.742,-0.369 0.733,-0.406 0.715,-0.427C0.697,-0.449 0.671,-0.46 0.636,-0.46C0.602,-0.46 0.575,-0.448 0.555,-0.425C0.535,-0.401 0.523,-0.371 0.52,-0.335L0.52,-0.075L0.599,-0.062L0.599,0L0.344,0L0.344,-0.062L0.423,-0.075L0.423,-0.317C0.423,-0.366 0.414,-0.403 0.396,-0.426C0.377,-0.448 0.351,-0.46 0.316,-0.46C0.287,-0.46 0.263,-0.454 0.244,-0.442C0.225,-0.43 0.21,-0.413 0.2,-0.391L0.2,-0.075L0.28,-0.062L0.28,0L0.024,0L0.024,-0.062Z" style="fill:white;fill-rule:nonzero;"/>
            </g>
        </g>
        <g transform="matrix(2,0,0,2,1045.62,1126.38)">
            <path d="M0,11.043C-1.483,16.579 -4.821,20.846 -10.024,23.85C-15.222,26.851 -20.592,27.611 -26.128,26.128C-31.664,24.645 -35.934,21.301 -38.935,16.103C-41.939,10.9 -42.696,5.536 -41.213,0C-39.729,-5.536 -36.386,-9.806 -31.188,-12.807C-25.984,-15.811 -20.621,-16.568 -15.085,-15.085C-9.549,-13.601 -5.282,-10.264 -2.278,-5.06C0.723,0.137 1.484,5.507 0,11.043" style="fill:rgb(245,130,32);fill-rule:nonzero;"/>
        </g>
        <g transform="matrix(2,0,0,2,1153.96,1059.58)">
            <path d="M0,7.361C-0.989,11.052 -3.214,13.896 -6.683,15.899C-10.148,17.9 -13.728,18.407 -17.419,17.418C-21.109,16.429 -23.956,14.2 -25.956,10.735C-27.959,7.266 -28.464,3.69 -27.475,-0.001C-26.486,-3.692 -24.257,-6.538 -20.792,-8.539C-17.323,-10.542 -13.747,-11.046 -10.057,-10.058C-6.366,-9.069 -3.521,-6.844 -1.519,-3.375C0.482,0.09 0.989,3.67 0,7.361" style="fill:rgb(214,216,25);fill-rule:nonzero;"/>
        </g>
        <g transform="matrix(2,0,0,2,909.802,1200.54)">
            <path d="M0,7.361C-0.989,11.052 -3.214,13.896 -6.683,15.899C-10.148,17.9 -13.728,18.407 -17.419,17.418C-21.109,16.429 -23.956,14.2 -25.956,10.735C-27.959,7.266 -28.464,3.69 -27.475,-0.001C-26.486,-3.692 -24.257,-6.538 -20.792,-8.539C-17.323,-10.542 -13.747,-11.046 -10.057,-10.058C-6.366,-9.069 -3.521,-6.844 -1.519,-3.375C0.482,0.09 0.989,3.67 0,7.361" style="fill:rgb(0,186,190);fill-rule:nonzero;"/>
        </g>
        <g transform="matrix(2,0,0,2,779.48,1273.23)">
            <path d="M0,5.153C-0.692,7.736 -2.25,9.728 -4.678,11.13C-7.103,12.53 -9.609,12.885 -12.193,12.193C-14.776,11.5 -16.769,9.94 -18.169,7.515C-19.572,5.086 -19.925,2.583 -19.233,0C-18.54,-2.584 -16.98,-4.577 -14.554,-5.977C-12.126,-7.379 -9.623,-7.732 -7.04,-7.04C-4.456,-6.348 -2.465,-4.79 -1.063,-2.362C0.337,0.064 0.692,2.57 0,5.153" style="fill:rgb(114,191,68);fill-rule:nonzero;"/>
        </g>
        <g transform="matrix(2,0,0,2,1135.07,1247.97)">
            <path d="M0,-7.361C0.989,-3.67 0.484,-0.095 -1.519,3.375C-3.519,6.84 -6.366,9.069 -10.057,10.058C-13.747,11.046 -17.327,10.539 -20.792,8.539C-24.261,6.536 -26.486,3.692 -27.475,0.001C-28.464,-3.69 -27.957,-7.27 -25.956,-10.735C-23.954,-14.204 -21.109,-16.429 -17.419,-17.418C-13.728,-18.407 -10.152,-17.902 -6.683,-15.899C-3.218,-13.899 -0.989,-11.052 0,-7.361" style="fill-rule:nonzero;"/>
        </g>
        <g transform="matrix(2,0,0,2,1078.33,1373.74)">
            <path d="M0,-11.043C1.483,-5.507 0.726,-0.143 -2.278,5.06C-5.279,10.258 -9.549,13.601 -15.085,15.085C-20.621,16.568 -25.991,15.808 -31.188,12.807C-36.392,9.802 -39.729,5.536 -41.213,0C-42.696,-5.536 -41.936,-10.906 -38.935,-16.103C-35.93,-21.307 -31.664,-24.645 -26.128,-26.128C-20.592,-27.611 -15.228,-26.854 -10.024,-23.85C-4.827,-20.849 -1.483,-16.579 0,-11.043" style="fill:rgb(214,216,25);fill-rule:nonzero;"/>
        </g>
        <g transform="matrix(2,0,0,2,985.867,1489.93)">
            <path d="M0,-5.153C0.692,-2.57 0.339,-0.066 -1.063,2.362C-2.463,4.787 -4.456,6.348 -7.04,7.04C-9.623,7.732 -12.129,7.377 -14.555,5.977C-16.983,4.575 -18.54,2.584 -19.233,0C-19.925,-2.583 -19.57,-5.089 -18.17,-7.515C-16.768,-9.943 -14.776,-11.5 -12.193,-12.193C-9.609,-12.885 -7.106,-12.532 -4.678,-11.13C-2.253,-9.729 -0.692,-7.736 0,-5.153" style="fill:rgb(0,186,190);fill-rule:nonzero;"/>
        </g>
        <g transform="matrix(2,0,0,2,1267.13,1439.22)">
            <path d="M0,-20.113C2.702,-17.411 4.053,-14.062 4.053,-10.056C4.053,-6.055 2.702,-2.702 0,0C-2.702,2.702 -6.056,4.053 -10.057,4.053C-14.062,4.053 -17.411,2.702 -20.113,0C-22.815,-2.702 -24.166,-6.055 -24.166,-10.056C-24.166,-14.062 -22.815,-17.411 -20.113,-20.113C-17.411,-22.815 -14.062,-24.166 -10.057,-24.166C-6.056,-24.166 -2.702,-22.815 0,-20.113" style="fill-rule:nonzero;"/>
        </g>
        <g transform="matrix(2,0,0,2,1267.13,1580.19)">
            <path d="M0,-20.113C2.702,-17.411 4.053,-14.062 4.053,-10.056C4.053,-6.055 2.702,-2.702 0,0C-2.702,2.702 -6.056,4.053 -10.057,4.053C-14.062,4.053 -17.411,2.702 -20.113,0C-22.815,-2.702 -24.166,-6.055 -24.166,-10.056C-24.166,-14.062 -22.815,-17.411 -20.113,-20.113C-17.411,-22.815 -14.062,-24.166 -10.057,-24.166C-6.056,-24.166 -2.702,-22.815 0,-20.113" style="fill:rgb(0,186,190);fill-rule:nonzero;"/>
        </g>
        <g transform="matrix(2,0,0,2,1469.75,1403.9)">
            <path d="M0,-41.212C5.536,-39.729 9.803,-36.391 12.807,-31.188C15.808,-25.99 16.568,-20.62 15.085,-15.084C13.602,-9.548 10.258,-5.278 5.06,-2.277C-0.143,0.727 -5.507,1.484 -11.043,0.001C-16.579,-1.483 -20.849,-4.826 -23.85,-10.024C-26.854,-15.228 -27.611,-20.591 -26.128,-26.127C-24.644,-31.663 -21.307,-35.93 -16.103,-38.934C-10.906,-41.935 -5.536,-42.696 0,-41.212" style="fill:rgb(245,130,32);fill-rule:nonzero;"/>
        </g>
        <g transform="matrix(2,0,0,2,1536.55,1512.25)">
            <path d="M0,-27.475C3.691,-26.486 6.535,-24.261 8.538,-20.792C10.539,-17.327 11.045,-13.747 10.057,-10.056C9.068,-6.366 6.839,-3.519 3.374,-1.519C-0.095,0.484 -3.671,0.989 -7.362,0C-11.053,-0.989 -13.899,-3.218 -15.9,-6.683C-17.903,-10.152 -18.407,-13.728 -17.419,-17.418C-16.43,-21.109 -14.205,-23.954 -10.736,-25.956C-7.271,-27.957 -3.691,-28.464 0,-27.475" style="fill:rgb(114,191,68);fill-rule:nonzero;"/>
        </g>
        <g transform="matrix(2,0,0,2,1730.42,1297.62)">
            <path d="M0,-19.233C2.583,-19.925 5.087,-19.572 7.515,-18.17C9.94,-16.77 11.501,-14.777 12.193,-12.193C12.885,-9.61 12.53,-7.104 11.13,-4.678C9.728,-2.25 7.737,-0.693 5.153,0C2.57,0.692 0.064,0.337 -2.362,-1.063C-4.79,-2.465 -6.347,-4.457 -7.04,-7.04C-7.732,-9.624 -7.379,-12.127 -5.977,-14.555C-4.576,-16.98 -2.583,-18.541 0,-19.233" style="fill-rule:nonzero;"/>
        </g>
        <g transform="matrix(2,0,0,2,1472.18,860.35)">
            <path d="M0,-5.153C0.692,-7.736 2.25,-9.728 4.678,-11.13C7.103,-12.53 9.609,-12.885 12.193,-12.193C14.776,-11.5 16.769,-9.94 18.169,-7.515C19.572,-5.086 19.925,-2.583 19.232,0C18.54,2.584 16.98,4.577 14.555,5.977C12.126,7.379 9.623,7.732 7.04,7.04C4.456,6.348 2.465,4.79 1.063,2.362C-0.337,-0.064 -0.692,-2.57 0,-5.153" style="fill:rgb(0,186,190);fill-rule:nonzero;"/>
        </g>
        <g transform="matrix(2,0,0,2,1586.02,792.075)">
            <path d="M0,-7.361C0.989,-11.052 3.214,-13.896 6.683,-15.899C10.148,-17.9 13.728,-18.407 17.418,-17.418C21.109,-16.429 23.956,-14.2 25.956,-10.735C27.959,-7.266 28.464,-3.69 27.475,0.001C26.486,3.692 24.257,6.538 20.792,8.539C17.323,10.542 13.747,11.046 10.057,10.058C6.366,9.069 3.521,6.844 1.518,3.375C-0.482,-0.09 -0.989,-3.67 0,-7.361" style="fill:rgb(214,216,25);fill-rule:nonzero;"/>
        </g>
        <g transform="matrix(2,0,0,2,1708.1,721.594)">
            <path d="M0,-7.362C0.989,-11.053 3.214,-13.897 6.683,-15.9C10.148,-17.901 13.728,-18.407 17.419,-17.419C21.109,-16.43 23.956,-14.201 25.956,-10.736C27.959,-7.267 28.464,-3.691 27.475,0C26.486,3.691 24.257,6.537 20.792,8.538C17.323,10.541 13.747,11.045 10.057,10.057C6.366,9.068 3.521,6.843 1.518,3.374C-0.482,-0.091 -0.989,-3.671 0,-7.362" style="fill-rule:nonzero;"/>
        </g>
        <g transform="matrix(2,0,0,2,1360.75,744.644)">
            <path d="M0,7.361C-0.989,3.67 -0.484,0.095 1.519,-3.375C3.519,-6.84 6.366,-9.069 10.057,-10.058C13.747,-11.046 17.327,-10.539 20.792,-8.539C24.261,-6.536 26.486,-3.692 27.475,-0.001C28.464,3.69 27.957,7.27 25.957,10.735C23.954,14.204 21.109,16.429 17.419,17.418C13.728,18.407 10.152,17.902 6.683,15.899C3.218,13.898 0.989,11.052 0,7.361" style="fill-rule:nonzero;"/>
        </g>
        <g transform="matrix(2,0,0,2,1431.23,622.564)">
            <path d="M0,7.361C-0.989,3.67 -0.484,0.095 1.519,-3.375C3.519,-6.84 6.366,-9.069 10.057,-10.058C13.747,-11.046 17.327,-10.539 20.792,-8.539C24.261,-6.536 26.486,-3.692 27.475,-0.001C28.464,3.69 27.957,7.27 25.956,10.735C23.954,14.204 21.109,16.429 17.419,17.418C13.728,18.407 10.152,17.902 6.683,15.899C3.218,13.899 0.989,11.052 0,7.361" style="fill:rgb(0,186,190);fill-rule:nonzero;"/>
        </g>
        <g transform="matrix(2,0,0,2,1487.97,496.801)">
            <path d="M0,11.043C-1.483,5.507 -0.726,0.143 2.278,-5.06C5.279,-10.258 9.549,-13.601 15.085,-15.085C20.621,-16.568 25.991,-15.808 31.188,-12.807C36.392,-9.802 39.729,-5.536 41.213,0C42.696,5.536 41.936,10.906 38.935,16.103C35.93,21.307 31.664,24.645 26.128,26.128C20.592,27.611 15.228,26.854 10.024,23.85C4.827,20.849 1.483,16.579 0,11.043" style="fill:rgb(245,130,32);fill-rule:nonzero;"/>
        </g>
        <g transform="matrix(2,0,0,2,1218.63,684.3)">
            <path d="M0,30.17C-4.053,26.117 -6.079,21.094 -6.079,15.085C-6.079,9.084 -4.053,4.053 0,0C4.053,-4.052 9.083,-6.079 15.085,-6.079C21.093,-6.079 26.117,-4.052 30.17,0C34.222,4.053 36.249,9.084 36.249,15.085C36.249,21.094 34.222,26.117 30.17,30.17C26.117,34.223 21.093,36.249 15.085,36.249C9.083,36.249 4.053,34.223 0,30.17" style="fill:rgb(245,130,32);fill-rule:nonzero;"/>
        </g>
        <g transform="matrix(2,0,0,2,1228.69,553.392)">
            <path d="M0,20.113C-2.702,17.411 -4.053,14.062 -4.053,10.056C-4.053,6.055 -2.702,2.702 0,0C2.702,-2.702 6.056,-4.053 10.057,-4.053C14.062,-4.053 17.411,-2.702 20.113,0C22.815,2.702 24.166,6.055 24.166,10.056C24.166,14.062 22.815,17.411 20.113,20.113C17.411,22.815 14.062,24.166 10.057,24.166C6.056,24.166 2.702,22.815 0,20.113" style="fill:rgb(214,216,25);fill-rule:nonzero;"/>
        </g>
        <g transform="matrix(2,0,0,2,1234.72,418.461)">
            <path d="M0,14.079C-1.891,12.188 -2.837,9.843 -2.837,7.039C-2.837,4.239 -1.891,1.891 0,0C1.891,-1.891 4.239,-2.837 7.04,-2.837C9.844,-2.837 12.188,-1.891 14.079,0C15.97,1.891 16.916,4.239 16.916,7.039C16.916,9.843 15.97,12.188 14.079,14.079C12.188,15.97 9.844,16.916 7.04,16.916C4.239,16.916 1.891,15.97 0,14.079" style="fill:rgb(114,191,68);fill-rule:nonzero;"/>
        </g>
        <g transform="matrix(2,0,0,2,1100.24,724.53)">
            <path d="M0,27.475C-3.691,26.486 -6.535,24.261 -8.538,20.792C-10.539,17.327 -11.045,13.747 -10.057,10.056C-9.068,6.366 -6.839,3.519 -3.374,1.519C0.095,-0.484 3.671,-0.989 7.362,0C11.053,0.989 13.899,3.218 15.9,6.683C17.903,10.152 18.407,13.728 17.419,17.418C16.43,21.109 14.205,23.954 10.736,25.957C7.271,27.957 3.691,28.464 0,27.475" style="fill:rgb(214,216,25);fill-rule:nonzero;"/>
        </g>
        <g transform="matrix(2,0,0,2,1026.07,588.713)">
            <path d="M0,41.212C-5.536,39.729 -9.803,36.391 -12.807,31.188C-15.808,25.99 -16.568,20.62 -15.085,15.084C-13.602,9.548 -10.258,5.278 -5.06,2.277C0.143,-0.727 5.507,-1.484 11.043,-0.001C16.579,1.483 20.849,4.826 23.85,10.024C26.854,15.228 27.611,20.591 26.128,26.127C24.644,31.663 21.307,35.93 16.103,38.934C10.906,41.935 5.536,42.696 0,41.212" style="fill:rgb(245,130,32);fill-rule:nonzero;"/>
        </g>
        <g transform="matrix(2,0,0,2,959.272,480.37)">
            <path d="M0,27.475C-3.691,26.486 -6.535,24.261 -8.538,20.792C-10.539,17.327 -11.046,13.747 -10.057,10.056C-9.068,6.366 -6.839,3.519 -3.374,1.519C0.095,-0.484 3.671,-0.989 7.362,0C11.053,0.989 13.899,3.218 15.9,6.683C17.903,10.152 18.407,13.728 17.419,17.418C16.43,21.109 14.205,23.954 10.736,25.956C7.271,27.957 3.691,28.464 0,27.475" style="fill-rule:nonzero;"/>
        </g>
        <g transform="matrix(2,0,0,2,765.4,694.999)">
            <path d="M0,19.233C-2.583,19.925 -5.087,19.572 -7.515,18.17C-9.94,16.77 -11.501,14.777 -12.193,12.193C-12.885,9.61 -12.53,7.104 -11.13,4.679C-9.728,2.25 -7.737,0.693 -5.153,0C-2.57,-0.692 -0.064,-0.337 2.362,1.064C4.79,2.465 6.347,4.457 7.04,7.04C7.732,9.624 7.379,12.127 5.977,14.555C4.576,16.98 2.583,18.541 0,19.233" style="fill:rgb(114,191,68);fill-rule:nonzero;"/>
        </g>
    </g>
</svg>
